<?xml version="1.0" encoding="UTF-8"?>
<svg width="14px" height="19px" viewBox="0 0 14 19" version="1.1" xmlns="http://www.w3.org/2000/svg" xmlns:xlink="http://www.w3.org/1999/xlink">
    <!-- Generator: Sketch 48.2 (47327) - http://www.bohemiancoding.com/sketch -->
    <title>Shape</title>
    <desc>Created with Sketch.</desc>
    <defs></defs>
    <g id="Desktop-HD-Copy-40" stroke="none" stroke-width="1" fill="none" fill-rule="evenodd" transform="translate(-1183.000000, -1498.000000)">
        <path d="M1195.42695,1501.37196 C1195.23064,1501.04183 1195.07794,1500.68969 1194.85981,1500.38157 C1194.20542,1499.41319 1193.28928,1498.75293 1192.17682,1498.37879 C1191.87144,1498.29075 1191.58787,1498.1587 1191.3043,1498.07066 C1190.64991,1497.87259 1190.1264,1498.09267 1189.84283,1498.70891 C1189.71195,1498.99503 1189.58107,1499.30315 1189.51563,1499.63328 C1189.38476,1500.29353 1189.25388,1500.95379 1189.16663,1501.61405 C1189.123,1501.92217 1189.16663,1502.2523 1189.23206,1502.56042 C1189.36294,1503.15465 1189.77739,1503.5288 1190.34453,1503.70487 C1190.73716,1503.83692 1191.12979,1503.96897 1191.52243,1504.10102 C1192.11138,1504.27709 1192.41676,1504.65124 1192.50401,1505.24547 C1192.61308,1505.88372 1192.50401,1506.49996 1192.35132,1507.1162 C1192.06775,1508.28266 1191.65331,1509.4051 1191.08617,1510.4395 C1190.82441,1510.92369 1190.51903,1511.36386 1190.06096,1511.67198 C1189.66832,1511.9581 1189.23206,1511.98011 1188.7958,1511.78203 C1188.38136,1511.60596 1187.96691,1511.42989 1187.55246,1511.27583 C1186.78901,1511.01173 1186.15643,1511.1878 1185.63292,1511.80404 C1185.39298,1512.09015 1185.19666,1512.37626 1185.02216,1512.68438 C1184.71678,1513.2346 1184.45502,1513.78481 1184.19326,1514.35704 C1184.10601,1514.55511 1184.06239,1514.75319 1184.01876,1514.97328 C1183.93151,1515.5455 1184.14964,1515.98567 1184.65134,1516.20576 C1185.34935,1516.49187 1186.04737,1516.822 1186.78901,1516.93204 C1187.72697,1517.0861 1188.64311,1516.97606 1189.53745,1516.62392 C1190.78079,1516.11772 1191.76237,1515.25939 1192.56945,1514.20297 C1193.28928,1513.27861 1193.8346,1512.26622 1194.31449,1511.1878 C1195.05613,1509.49313 1195.62327,1507.75445 1195.88502,1505.92774 C1196.03772,1504.8053 1196.05953,1503.68286 1195.81959,1502.58243 C1195.77596,1502.34033 1195.68871,1502.09824 1195.64508,1501.87815 C1195.55783,1501.68008 1195.49239,1501.52602 1195.42695,1501.37196 Z" id="Shape" fill="#6D6D6D" fill-rule="nonzero" transform="translate(1190.000000, 1507.500000) scale(-1, 1) rotate(8.000000) translate(-1190.000000, -1507.500000) "></path>
    </g>
</svg>