<?xml version="1.0" encoding="UTF-8"?>
<svg width="14px" height="19px" viewBox="0 0 14 19" version="1.1" xmlns="http://www.w3.org/2000/svg" xmlns:xlink="http://www.w3.org/1999/xlink">
    <!-- Generator: Sketch 48.2 (47327) - http://www.bohemiancoding.com/sketch -->
    <title>Shape</title>
    <desc>Created with Sketch.</desc>
    <defs></defs>
    <g id="Desktop-HD-Copy-51" stroke="none" stroke-width="1" fill="none" fill-rule="evenodd" transform="translate(-369.000000, -1617.000000)">
        <g id="Group-6" transform="translate(0.000000, 1482.000000)" fill="#8E8E8E" fill-rule="nonzero">
            <path d="M381.426952,138.371956 C381.230635,138.041827 381.077944,137.689689 380.859814,137.381569 C380.205425,136.41319 379.289279,135.752932 378.176817,135.378785 C377.871435,135.290751 377.587867,135.158699 377.304298,135.070665 C376.649908,134.872587 376.126397,135.092673 375.842828,135.708914 C375.71195,135.995026 375.581072,136.303147 375.515633,136.633276 C375.384755,137.293534 375.253877,137.953793 375.166625,138.614051 C375.122999,138.922171 375.166625,139.2523 375.232064,139.560421 C375.362942,140.154653 375.777389,140.5288 376.344526,140.704869 C376.73716,140.83692 377.129794,140.968972 377.522428,141.101024 C378.111378,141.277092 378.41676,141.651239 378.504012,142.245471 C378.613077,142.883721 378.504012,143.499962 378.351321,144.116203 C378.067752,145.282659 377.653306,146.405098 377.086168,147.439503 C376.824412,147.923692 376.51903,148.363864 376.060958,148.671985 C375.668324,148.958097 375.232064,148.980105 374.795805,148.782028 C374.381358,148.605959 373.966911,148.42989 373.552464,148.27583 C372.78901,148.011727 372.156433,148.187796 371.632922,148.804037 C371.392979,149.090148 371.196662,149.37626 371.022158,149.684381 C370.716776,150.234596 370.455021,150.784811 370.193265,151.357035 C370.106013,151.555113 370.062387,151.75319 370.018761,151.973276 C369.931509,152.5455 370.149639,152.985672 370.651337,153.205758 C371.349353,153.49187 372.047368,153.821999 372.78901,153.932042 C373.726968,154.086103 374.643114,153.97606 375.537446,153.623922 C376.780786,153.117724 377.76237,152.259388 378.569451,151.202975 C379.289279,150.278613 379.834604,149.266217 380.31449,148.187796 C381.056131,146.493133 381.623269,144.754453 381.885025,142.927738 C382.037715,141.805299 382.059528,140.68286 381.819586,139.58243 C381.77596,139.340335 381.688708,139.09824 381.645082,138.878154 C381.55783,138.680077 381.492391,138.526016 381.426952,138.371956 Z" id="Shape" transform="translate(376.000000, 144.500000) scale(-1, 1) rotate(8.000000) translate(-376.000000, -144.500000) "></path>
        </g>
    </g>
</svg>