<?xml version="1.0" encoding="UTF-8"?>
<svg width="15px" height="19px" viewBox="0 0 15 19" version="1.1" xmlns="http://www.w3.org/2000/svg" xmlns:xlink="http://www.w3.org/1999/xlink">
    <!-- Generator: Sketch 48.2 (47327) - http://www.bohemiancoding.com/sketch -->
    <title>Shape</title>
    <desc>Created with Sketch.</desc>
    <defs></defs>
    <g id="Desktop-HD-Copy-51" stroke="none" stroke-width="1" fill="none" fill-rule="evenodd" transform="translate(-112.000000, -1038.000000)">
        <g id="Group-10" transform="translate(109.000000, 859.000000)" fill="#185BDA" fill-rule="nonzero">
            <g id="Group-9" transform="translate(0.000000, 84.000000)">
                <g id="Group-8" transform="translate(3.000000, 85.000000)">
                    <path d="M12.6149793,13.064778 C12.419653,12.7392341 12.2677325,12.3919873 12.0507033,12.0881464 C11.3996155,11.1332177 10.4880927,10.48213 9.38124362,10.1131803 C9.07740269,10.0263686 8.79526468,9.89615106 8.51312666,9.80933937 C7.86203895,9.61401305 7.34116877,9.83104229 7.05903076,10.4387242 C6.92881322,10.7208622 6.79859567,11.0247031 6.7334869,11.350247 C6.60326936,12.0013347 6.47305182,12.6524224 6.38624012,13.3035101 C6.34283427,13.6073511 6.38624012,13.9328949 6.45134889,14.2367358 C6.58156644,14.8227148 6.99392199,15.1916645 7.55819801,15.3652879 C7.94885064,15.4955054 8.33950327,15.625723 8.7301559,15.7559405 C9.31613485,15.9295639 9.61997579,16.2985136 9.70678748,16.8844926 C9.8153021,17.5138774 9.70678748,18.1215592 9.55486701,18.7292411 C9.272729,19.8794961 8.86037345,20.9863452 8.29609743,22.0063826 C8.03566234,22.4838469 7.7318214,22.9179054 7.27606,23.2217464 C6.88540737,23.5038844 6.45134889,23.5255873 6.01729041,23.330261 C5.60493486,23.1566376 5.1925793,22.9830142 4.78022375,22.8310937 C4.02062141,22.5706586 3.39123662,22.744282 2.87036644,23.3519639 C2.63163428,23.6341019 2.43630797,23.9162399 2.26268457,24.2200809 C1.95884364,24.762654 1.69840855,25.3052271 1.43797346,25.8695031 C1.35116177,26.0648294 1.30775592,26.2601557 1.26435007,26.4771849 C1.17753838,27.041461 1.39456762,27.4755194 1.89373487,27.6925487 C2.58822843,27.9746867 3.282722,28.3002306 4.02062141,28.4087452 C4.95384714,28.5606656 5.86536995,28.452151 6.75518983,28.1049042 C7.99225649,27.605737 8.96888807,26.759323 9.77189625,25.7175826 C10.4880927,24.8060598 11.0306658,23.8077253 11.5081302,22.744282 C12.2460296,21.0731569 12.8103056,19.3586259 13.0707407,17.5572832 C13.2226612,16.4504341 13.2443641,15.343585 13.0056319,14.2584388 C12.9622261,14.0197066 12.8754144,13.7809744 12.8320085,13.5639452 C12.7451968,13.3686189 12.6800881,13.2166984 12.6149793,13.064778 Z" id="Shape" transform="translate(7.215410, 19.107707) scale(-1, 1) rotate(8.000000) translate(-7.215410, -19.107707) "></path>
                </g>
            </g>
        </g>
    </g>
</svg>