<?xml version="1.0" encoding="UTF-8"?>
<svg width="20px" height="16px" viewBox="0 0 20 16" version="1.1" xmlns="http://www.w3.org/2000/svg" xmlns:xlink="http://www.w3.org/1999/xlink">
    <!-- Generator: Sketch 48.2 (47327) - http://www.bohemiancoding.com/sketch -->
    <title>Combined Shape</title>
    <desc>Created with Sketch.</desc>
    <defs></defs>
    <g id="Desktop-HD-Copy-51" stroke="none" stroke-width="1" fill="none" fill-rule="evenodd" transform="translate(-110.000000, -1071.000000)">
        <g id="Group-10" transform="translate(109.000000, 859.000000)" fill="#185BDA">
            <g id="Group-9" transform="translate(0.000000, 84.000000)">
                <path d="M19.8371499,128.628138 L10.9958363,136.653264 L2.09990159,128.678327 C2.61728108,128.254394 3.27893209,128 4,128 L18,128 C18.6921452,128 19.3295445,128.234395 19.8371499,128.628138 Z M20.9271245,130.339815 C20.9748278,130.552237 21,130.773179 21,131 L21,141 C21,142.656854 19.6568542,144 18,144 L4,144 C2.34314575,144 1,142.656854 1,141 L1,131 C1,130.804136 1.01876994,130.612656 1.05460919,130.427261 L10.3324888,138.7446 C10.7141099,139.086712 11.2926041,139.084923 11.6721025,138.740458 L20.9271245,130.339815 Z" id="Combined-Shape"></path>
            </g>
        </g>
    </g>
</svg>