<?xml version="1.0" encoding="UTF-8"?>
<svg width="254px" height="39px" viewBox="0 0 254 39" version="1.1" xmlns="http://www.w3.org/2000/svg" xmlns:xlink="http://www.w3.org/1999/xlink">
    <!-- Generator: Sketch 48.2 (47327) - http://www.bohemiancoding.com/sketch -->
    <title>Group 13</title>
    <desc>Created with Sketch.</desc>
    <defs></defs>
    <g id="Desktop-HD-Copy-40" stroke="none" stroke-width="1" fill="none" fill-rule="evenodd" transform="translate(-107.000000, -95.000000)">
        <g id="Group-13" transform="translate(107.363281, 95.500000)">
            <path d="M70.1025954,21.7510671 C72.2375565,23.295507 72.9189271,24.6582482 72.9189271,27.2474563 L72.9189271,32.4258726 C72.9189271,36.3778218 70.9656648,38.3310841 67.0137155,38.3310841 L64.8787544,38.3310841 C60.9268052,38.3310841 59.0189676,36.3778218 59.0189676,32.4712973 L59.0189676,25.7484411 L63.7431368,25.7484411 L63.7431368,32.2895985 C63.7431368,33.5160655 64.333658,34.1065866 65.6055497,34.1065866 L66.2414956,34.1065866 C67.5133873,34.1065866 68.1039084,33.5160655 68.1039084,32.2895985 L68.1039084,27.9288269 C68.1039084,26.6115105 67.6496614,26.0209893 66.7411673,25.3396187 L61.8352993,21.7510671 C59.6549135,20.2066272 59.0189676,18.7076119 59.0189676,16.2546779 L59.0189676,11.8939063 C59.0189676,7.94195705 60.9722299,5.98869478 64.9241791,5.98869478 L66.9682908,5.98869478 C70.8748154,5.98869478 72.8280777,7.94195705 72.8280777,11.8484816 L72.8280777,17.617419 L68.0584837,17.617419 L68.0584837,12.0301804 C68.0584837,10.8037134 67.4679626,10.2131923 66.2414956,10.2131923 L65.6509744,10.2131923 C64.4245074,10.2131923 63.8339862,10.8037134 63.8339862,12.0301804 L63.8339862,15.5733073 C63.8339862,16.8906238 64.2882333,17.5265696 65.1967274,18.1625155 L70.1025954,21.7510671 Z M85.2647127,6.2158183 L89.8526079,38.0585359 L85.0375892,38.0585359 L84.4016434,33.0618184 L79.3595012,33.0618184 L78.76898,38.0585359 L74.2719343,38.0585359 L78.8144047,6.2158183 L85.2647127,6.2158183 Z M81.8578599,12.6661263 L79.9045976,28.7464715 L83.8565469,28.7464715 L81.8578599,12.6661263 Z M102.788915,21.7056424 C104.651328,22.3415883 105.559822,23.7043294 105.559822,26.2935375 L105.559822,32.1533244 C105.559822,36.1052736 103.606559,38.0585359 99.6546101,38.0585359 L91.7052869,38.0585359 L91.7052869,6.261243 L99.5637607,6.261243 C103.51571,6.261243 105.468972,8.21450528 105.468972,12.1664545 L105.468972,16.8451991 C105.468972,19.6615307 104.515053,21.0696965 102.788915,21.7056424 Z M100.653954,12.3481534 C100.653954,11.1216863 100.063432,10.5311652 98.8369654,10.5311652 L96.5203055,10.5311652 L96.5203055,19.7978048 L98.6552666,19.7978048 C100.018008,19.7978048 100.653954,19.1164343 100.653954,17.7991178 L100.653954,12.3481534 Z M96.5203055,23.9314529 L96.5203055,33.7886137 L98.9278148,33.7886137 C100.154282,33.7886137 100.744803,33.1980925 100.744803,31.9716255 L100.744803,25.9301399 C100.744803,24.5673988 100.108857,23.9314529 98.746116,23.9314529 L96.5203055,23.9314529 Z M108.139296,6.261243 L112.999739,6.261243 L112.999739,33.6523396 L118.359854,33.6523396 L118.359854,38.0585359 L108.139296,38.0585359 L108.139296,6.261243 Z M125.345525,6.261243 L125.345525,38.0585359 L120.485082,38.0585359 L120.485082,6.261243 L125.345525,6.261243 Z M133.330539,0.356031465 L135.329226,4.39883013 L132.013223,4.39883013 L128.651794,0.356031465 L133.330539,0.356031465 Z M128.152123,6.261243 L138.963202,6.261243 L138.963202,10.6674393 L133.012566,10.6674393 L133.012566,19.6615307 L138.736079,19.6615307 L138.736079,24.067727 L133.012566,24.067727 L133.012566,33.6523396 L139.054052,33.6523396 L139.054052,38.0585359 L128.152123,38.0585359 L128.152123,6.261243 Z M152.626304,23.0683835 C154.624991,23.61348 155.442636,24.839947 155.442636,27.2474563 L155.442636,38.0585359 L150.582193,38.0585359 L150.582193,27.3383057 C150.582193,25.9301399 149.946247,25.294194 148.538081,25.294194 L146.357695,25.294194 L146.357695,38.0585359 L141.497252,38.0585359 L141.497252,6.261243 L149.492,6.261243 C153.443949,6.261243 155.397211,8.21450528 155.397211,12.1664545 L155.397211,18.1625155 C155.397211,20.9788471 154.397868,22.3415883 152.626304,23.0683835 Z M150.536768,12.3935781 C150.536768,11.167111 149.946247,10.5765899 148.71978,10.5765899 L146.357695,10.5765899 L146.357695,21.0696965 L148.538081,21.0696965 C149.900822,21.0696965 150.536768,20.4337507 150.536768,19.1164343 L150.536768,12.3935781 Z M158.11296,6.261243 L168.924039,6.261243 L168.924039,10.6674393 L162.973403,10.6674393 L162.973403,19.6615307 L168.696916,19.6615307 L168.696916,24.067727 L162.973403,24.067727 L162.973403,33.6523396 L169.014889,33.6523396 L169.014889,38.0585359 L158.11296,38.0585359 L158.11296,6.261243 Z" id="SABLIÈRE-Copy-2" fill="#222222"></path>
            <path d="M190.872151,26.0209893 L193.552209,26.0209893 L193.552209,32.7438455 C193.552209,36.4232465 191.689796,38.3310841 187.96497,38.3310841 L186.738503,38.3310841 C183.013678,38.3310841 181.151265,36.4232465 181.151265,32.7438455 L181.151265,11.5305087 C181.151265,7.89653235 183.013678,5.98869478 186.738503,5.98869478 L187.96497,5.98869478 C191.644371,5.98869478 193.461359,7.85110765 193.461359,11.485084 L193.461359,17.3448708 L190.781302,17.3448708 L190.781302,11.4396593 C190.781302,9.48639699 189.827383,8.53247821 187.828696,8.53247821 L186.829353,8.53247821 C184.830666,8.53247821 183.876747,9.48639699 183.876747,11.4396593 L183.876747,32.8801196 C183.876747,34.8333819 184.830666,35.7873007 186.829353,35.7873007 L187.919546,35.7873007 C189.918233,35.7873007 190.872151,34.8333819 190.872151,32.8801196 L190.872151,26.0209893 Z M197.176451,6.261243 L199.901934,6.261243 L199.901934,35.5147525 L206.397666,35.5147525 L206.397666,38.0585359 L197.176451,38.0585359 L197.176451,6.261243 Z M216.517641,6.17039359 L221.832332,38.0585359 L219.197699,38.0585359 L218.24378,32.0624749 L211.475499,32.0624749 L210.567005,38.0585359 L207.932372,38.0585359 L213.247063,6.17039359 L216.517641,6.17039359 Z M214.836927,10.6674393 L211.884322,29.5186915 L217.834958,29.5186915 L214.836927,10.6674393 Z M233.72387,22.8866847 C235.722557,23.4317812 236.767326,24.7490976 236.767326,27.3837304 L236.767326,38.0585359 L234.041843,38.0585359 L234.041843,27.4745798 C234.041843,25.2033446 232.95165,24.1585764 230.634991,24.1585764 L227.546111,24.1585764 L227.546111,38.0585359 L224.820628,38.0585359 L224.820628,6.261243 L231.134662,6.261243 C234.859488,6.261243 236.721901,8.12365587 236.721901,11.8030569 L236.721901,17.8899673 C236.721901,20.842573 235.586283,22.2053141 233.72387,22.8866847 Z M233.996419,11.6667828 C233.996419,9.71352051 233.0425,8.80502643 231.043813,8.80502643 L227.546111,8.80502643 L227.546111,21.6602177 L230.680415,21.6602177 C232.906226,21.6602177 233.996419,20.6154495 233.996419,18.389639 L233.996419,11.6667828 Z M253.292184,38.0585359 L250.294154,38.0585359 L243.480448,22.387013 L243.480448,38.0585359 L240.754966,38.0585359 L240.754966,6.261243 L243.480448,6.261243 L243.480448,21.7510671 L250.566702,6.261243 L253.473883,6.261243 L246.160506,21.8873412 L253.292184,38.0585359 Z" id="CLARK-Copy-2" fill="#185BDA"></path>
            <path d="M1.15837964,33.0805388 L0.618991214,30.685127 L23.6678748,25.4950794 L46.7167584,30.685127 L46.1773699,33.0805388 L23.6678748,28.0119482 L1.15837964,33.0805388 Z M23.6678748,16.7668661 L1.47110688,26.76321 L0.462847728,24.524382 L23.6678748,14.0739673 L46.8729018,24.524382 L45.8646427,26.76321 L23.6678748,16.7668661 Z M23.6678748,3.93695637 L1.75629696,18.7388186 L0.381836703,16.7041697 L23.6678748,0.973822458 L46.9539129,16.7041697 L45.5794526,18.7388186 L23.6678748,3.93695637 Z M0.858696578,37.7004583 L0.858696578,35.2450689 L46.477053,35.2450689 L46.477053,37.7004583 L0.858696578,37.7004583 Z" id="Combined-Shape" fill="#979797" fill-rule="nonzero"></path>
        </g>
    </g>
</svg>