<?xml version="1.0" encoding="UTF-8"?>
<svg width="65px" height="90px" viewBox="0 0 65 90" version="1.1" xmlns="http://www.w3.org/2000/svg" xmlns:xlink="http://www.w3.org/1999/xlink">
    <!-- Generator: Sketch 48.2 (47327) - http://www.bohemiancoding.com/sketch -->
    <title>Group</title>
    <desc>Created with Sketch.</desc>
    <defs></defs>
    <g id="Page-1" stroke="none" stroke-width="1" fill="none" fill-rule="evenodd">
        <g id="Group" fill-rule="nonzero">
            <g id="placeholder">
                <path d="M30.3293145,89.0263477 C29.0948387,87.6433008 0.100120968,54.8991211 0.100120968,32.5944141 C0.100295699,14.6218359 14.6347849,0 32.5001747,0 C50.3655645,0 64.899879,14.6218359 64.899879,32.5944141 C64.899879,54.8989453 35.9051613,87.6433008 34.6706855,89.0263477 C33.5109946,90.3258984 31.4863844,90.3232617 30.3293145,89.0263477 Z" id="Shape" fill="#185BDA"></path>
                <path d="M64.8997043,32.5944141 C64.8997043,14.6218359 50.3652151,0 32.5001747,0 L32.5001747,90 C33.2955511,90 34.0912769,89.6760352 34.6708602,89.0263477 C35.9049866,87.6434766 64.8997043,54.8991211 64.8997043,32.5944141 Z" id="Shape" fill="#1245A4"></path>
            </g>
            <g id="logo" transform="translate(16.075269, 18.281250)" fill="#FFFFFF">
                <path d="M-5.53282083,26.426675 L-6.05898321,24.0878284 L16.4247312,19.0203383 L38.9084456,24.0878284 L38.3822831,26.426675 L16.4247312,21.4777739 L-5.53282083,26.426675 Z M16.4247312,10.4982325 L-5.22776181,20.2585233 L-6.21129798,18.0725629 L16.4247312,7.86892371 L39.0607603,18.0725629 L38.0772242,20.2585233 L16.4247312,10.4982325 Z M16.4247312,-2.02871238 L-4.94956472,12.4236195 L-6.29032258,10.4370167 L16.4247312,-4.921875 L39.1397849,10.4370167 L37.799027,12.4236195 L16.4247312,-2.02871238 Z M-5.82515553,30.9375 L-5.82515553,28.540092 L38.6746179,28.540092 L38.6746179,30.9375 L-5.82515553,30.9375 Z" id="Combined-Shape"></path>
            </g>
        </g>
    </g>
</svg>