<?xml version="1.0" encoding="UTF-8"?>
<svg width="745px" height="113px" viewBox="0 0 745 113" version="1.1" xmlns="http://www.w3.org/2000/svg" xmlns:xlink="http://www.w3.org/1999/xlink">
    <!-- Generator: Sketch 46.2 (44496) - http://www.bohemiancoding.com/sketch -->
    <title>logo-blanc</title>
    <desc>Created with Sketch.</desc>
    <defs></defs>
    <g id="Page-1" stroke="none" stroke-width="1" fill="none" fill-rule="evenodd">
        <g id="logo-blanc" transform="translate(5.000000, 0.000000)">
            <path d="M201.546769,63.1004785 L187.140822,52.5167464 C184.473054,50.6411483 183.13917,48.7655502 183.13917,44.8803828 L183.13917,34.430622 C183.13917,30.8133971 184.873219,29.0717703 188.474706,29.0717703 L190.208755,29.0717703 C193.810242,29.0717703 195.544291,30.8133971 195.544291,34.430622 L195.544291,50.9090909 L209.550072,50.9090909 L209.550072,33.8947368 C209.550072,22.3732057 203.814371,16.6124402 192.342969,16.6124402 L186.340491,16.6124402 C174.735701,16.6124402 169,22.3732057 169,34.0287081 L169,46.8899522 C169,54.1244019 170.867438,58.5454545 177.270081,63.1004785 L191.676027,73.6842105 C194.343795,75.6937799 195.677679,77.4354067 195.677679,81.3205742 L195.677679,94.1818182 C195.677679,97.7990431 193.94363,99.5406699 190.208755,99.5406699 L188.341317,99.5406699 C184.606442,99.5406699 182.872393,97.7990431 182.872393,94.1818182 L182.872393,74.8899522 L169,74.8899522 L169,94.7177033 C169,106.239234 174.602313,112 186.207103,112 L192.476358,112 C204.081148,112 209.816849,106.239234 209.816849,94.5837321 L209.816849,79.3110048 C209.816849,71.6746411 207.816023,67.6555024 201.546769,63.1004785 Z M246.069909,17.2822967 L259.542137,111.196172 L245.402967,111.196172 L243.53553,96.4593301 L228.729418,96.4593301 L226.995369,111.196172 L213.789918,111.196172 L227.128757,17.2822967 L246.069909,17.2822967 Z M236.06578,36.3062201 L230.330079,83.7320574 L241.934869,83.7320574 L236.06578,36.3062201 Z M297.529247,62.9665072 C302.998171,64.8421053 305.665939,68.861244 305.665939,76.4976077 L305.665939,93.7799043 C305.665939,105.435407 299.930238,111.196172 288.325448,111.196172 L264.982478,111.196172 L264.982478,17.4162679 L288.058671,17.4162679 C299.663461,17.4162679 305.399162,23.1770335 305.399162,34.8325359 L305.399162,48.6315789 C305.399162,56.937799 302.598006,61.0909091 297.529247,62.9665072 Z M291.259992,35.3684211 C291.259992,31.7511962 289.525943,30.0095694 285.924456,30.0095694 L279.121648,30.0095694 L279.121648,57.3397129 L285.390903,57.3397129 C289.392555,57.3397129 291.259992,55.3301435 291.259992,51.4449761 L291.259992,35.3684211 Z M279.121648,69.5311005 L279.121648,98.6028708 L286.191233,98.6028708 C289.79272,98.6028708 291.526769,96.861244 291.526769,93.2440191 L291.526769,75.4258373 C291.526769,71.4066986 289.659332,69.5311005 285.65768,69.5311005 L279.121648,69.5311005 Z M313.240494,17.4162679 L313.240494,111.196172 L343.252883,111.196172 L343.252883,98.2009569 L327.513053,98.2009569 L327.513053,17.4162679 L313.240494,17.4162679 Z M363.766113,17.4162679 L349.493555,17.4162679 L349.493555,111.196172 L363.766113,111.196172 L363.766113,17.4162679 Z M387.213888,0 L373.474883,0 L383.345624,11.923445 L393.082977,11.923445 L387.213888,0 Z M372.00761,17.4162679 L372.00761,111.196172 L404.020825,111.196172 L404.020825,98.2009569 L386.280169,98.2009569 L386.280169,69.9330144 L403.087107,69.9330144 L403.087107,56.937799 L386.280169,56.937799 L386.280169,30.4114833 L403.754049,30.4114833 L403.754049,17.4162679 L372.00761,17.4162679 Z M443.875372,66.9856459 C449.744462,68.5933014 452.145453,72.2105263 452.145453,79.3110048 L452.145453,111.196172 L437.872895,111.196172 L437.872895,79.5789474 C437.872895,75.4258373 436.005457,73.5502392 431.870417,73.5502392 L425.467774,73.5502392 L425.467774,111.196172 L411.195215,111.196172 L411.195215,17.4162679 L434.671573,17.4162679 C446.276364,17.4162679 452.012065,23.1770335 452.012065,34.8325359 L452.012065,52.5167464 C452.012065,60.8229665 449.07752,64.8421053 443.875372,66.9856459 Z M437.739506,35.5023923 C437.739506,31.8851675 436.005457,30.1435407 432.40397,30.1435407 L425.467774,30.1435407 L425.467774,61.0909091 L431.870417,61.0909091 C435.872069,61.0909091 437.739506,59.215311 437.739506,55.3301435 L437.739506,35.5023923 Z M459.986785,17.4162679 L459.986785,111.196172 L492,111.196172 L492,98.2009569 L474.259343,98.2009569 L474.259343,69.9330144 L491.066281,69.9330144 L491.066281,56.937799 L474.259343,56.937799 L474.259343,30.4114833 L491.733223,30.4114833 L491.733223,17.4162679 L459.986785,17.4162679 Z" id="SABLIÈRE-Copy-2" fill="#222222"></path>
            <path d="M556.49493,76.4606742 L556.49493,96.8202247 C556.49493,102.617978 553.698699,105.449438 547.839928,105.449438 L544.644235,105.449438 C538.785464,105.449438 535.989233,102.617978 535.989233,96.8202247 L535.989233,33.1797753 C535.989233,27.3820225 538.785464,24.5505618 544.644235,24.5505618 L547.57362,24.5505618 C553.432391,24.5505618 556.228623,27.3820225 556.228623,33.1797753 L556.228623,50.7078652 L564.084702,50.7078652 L564.084702,33.3146067 C564.084702,22.5280899 558.758546,17 547.973082,17 L544.377927,17 C533.459309,17 528,22.6629213 528,33.4494382 L528,96.4157303 C528,107.337079 533.459309,113 544.377927,113 L547.973082,113 C558.8917,113 564.351009,107.337079 564.351009,96.4157303 L564.351009,76.4606742 L556.49493,76.4606742 Z M574.974787,17.8089888 L574.974787,112.191011 L602.005025,112.191011 L602.005025,104.640449 L582.96402,104.640449 L582.96402,17.8089888 L574.974787,17.8089888 Z M631.669807,17.5393258 L647.248811,112.191011 L639.525886,112.191011 L636.729655,94.3932584 L616.889726,94.3932584 L614.226649,112.191011 L606.503724,112.191011 L622.082728,17.5393258 L631.669807,17.5393258 Z M626.743114,30.8876404 L618.088111,86.8426966 L635.53127,86.8426966 L626.743114,30.8876404 Z M682.106595,67.1573034 C687.965366,68.7752809 691.027905,72.6853933 691.027905,80.505618 L691.027905,112.191011 L683.038672,112.191011 L683.038672,80.7752809 C683.038672,74.0337079 679.842979,70.9325843 673.052131,70.9325843 L663.997667,70.9325843 L663.997667,112.191011 L656.008434,112.191011 L656.008434,17.8089888 L674.516824,17.8089888 C685.435442,17.8089888 690.894751,23.3370787 690.894751,34.258427 L690.894751,52.3258427 C690.894751,61.0898876 687.565904,65.1348315 682.106595,67.1573034 Z M682.905518,33.8539326 C682.905518,28.0561798 680.109287,25.3595506 674.250516,25.3595506 L663.997667,25.3595506 L663.997667,63.5168539 L673.185285,63.5168539 C679.709825,63.5168539 682.905518,60.4157303 682.905518,53.8089888 L682.905518,33.8539326 Z M739.467384,112.191011 L718.562225,64.1910112 L740,17.8089888 L731.478152,17.8089888 L710.706146,63.7865169 L710.706146,17.8089888 L702.716913,17.8089888 L702.716913,112.191011 L710.706146,112.191011 L710.706146,65.6741573 L730.679228,112.191011 L739.467384,112.191011 Z" id="CLARK-Copy-2" fill="#185BDA"></path>
            <g id="Group-Copy" transform="translate(0.000000, 7.000000)" stroke="#979797" stroke-width="7" stroke-linecap="square">
                <path d="M0.719101124,99.371134 L127.485024,99.371134" id="Line"></path>
                <polyline id="Line-Copy" points="0.719101124 85 64.1020627 70.8333333 127.485024 85"></polyline>
                <polyline id="Line-Copy-2" points="0.719101124 67.254386 64.1020627 38.9210526 127.485024 67.254386"></polyline>
                <polyline id="Line-Copy-3" points="0.719101124 42.5 64.1020627 0 127.485024 42.5"></polyline>
            </g>
        </g>
    </g>
</svg>