<?xml version="1.0" encoding="utf-8"?>
<!-- Generator: Adobe Illustrator 21.1.0, SVG Export Plug-In . SVG Version: 6.00 Build 0)  -->
<svg version="1.1" id="Layer_1" xmlns="http://www.w3.org/2000/svg" xmlns:xlink="http://www.w3.org/1999/xlink" x="0px" y="0px"
	 viewBox="0 0 745 113" style="enable-background:new 0 0 745 113;" xml:space="preserve">
<style type="text/css">
	.st0{fill:#222222;}
	.st1{fill:#FFFFFF;}
	.st2{fill:none;stroke:#979797;stroke-width:7;stroke-linecap:square;}
</style>
<title>logo-blanc</title>
<desc>Created with Sketch.</desc>
<g id="Page-1">
	<g id="logo-blanc" transform="translate(5.000000, 0.000000)">
		<path id="SABLIÈRE-Copy-2" class="st0" d="M201.5,63.1l-14.4-10.6c-2.7-1.9-4-3.8-4-7.6V34.4c0-3.6,1.7-5.4,5.3-5.4h1.7
			c3.6,0,5.3,1.7,5.3,5.4v16.5h14v-17c0-11.5-5.7-17.3-17.2-17.3h-6c-11.6,0-17.3,5.8-17.3,17.4v12.9c0,7.2,1.9,11.7,8.3,16.2
			l14.4,10.6c2.7,2,4,3.8,4,7.6v12.9c0,3.6-1.7,5.4-5.5,5.4h-1.9c-3.7,0-5.5-1.7-5.5-5.4V74.9H169v19.8c0,11.5,5.6,17.3,17.2,17.3
			h6.3c11.6,0,17.3-5.8,17.3-17.4V79.3C209.8,71.7,207.8,67.7,201.5,63.1z M246.1,17.3l13.5,93.9h-14.1l-1.9-14.7h-14.8l-1.7,14.7
			h-13.2l13.3-93.9H246.1z M236.1,36.3l-5.7,47.4h11.6L236.1,36.3z M297.5,63c5.5,1.9,8.1,5.9,8.1,13.5v17.3
			c0,11.7-5.7,17.4-17.3,17.4H265V17.4h23.1c11.6,0,17.3,5.8,17.3,17.4v13.8C305.4,56.9,302.6,61.1,297.5,63z M291.3,35.4
			c0-3.6-1.7-5.4-5.3-5.4h-6.8v27.3h6.3c4,0,5.9-2,5.9-5.9V35.4z M279.1,69.5v29.1h7.1c3.6,0,5.3-1.7,5.3-5.4V75.4
			c0-4-1.9-5.9-5.9-5.9H279.1z M313.2,17.4v93.8h30v-13h-15.7V17.4H313.2z M363.8,17.4h-14.3v93.8h14.3V17.4z M387.2,0h-13.7
			l9.9,11.9h9.7L387.2,0z M372,17.4v93.8h32v-13h-17.7V69.9h16.8v-13h-16.8V30.4h17.5v-13H372z M443.9,67c5.9,1.6,8.3,5.2,8.3,12.3
			v31.9h-14.3V79.6c0-4.2-1.9-6-6-6h-6.4v37.6h-14.3V17.4h23.5c11.6,0,17.3,5.8,17.3,17.4v17.7C452,60.8,449.1,64.8,443.9,67z
			 M437.7,35.5c0-3.6-1.7-5.4-5.3-5.4h-6.9v30.9h6.4c4,0,5.9-1.9,5.9-5.8V35.5z M460,17.4v93.8h32v-13h-17.7V69.9h16.8v-13h-16.8
			V30.4h17.5v-13H460z"/>
		<path id="CLARK-Copy-2" class="st1" d="M556.5,76.5v20.4c0,5.8-2.8,8.6-8.7,8.6h-3.2c-5.9,0-8.7-2.8-8.7-8.6V33.2
			c0-5.8,2.8-8.6,8.7-8.6h2.9c5.9,0,8.7,2.8,8.7,8.6v17.5h7.9V33.3c0-10.8-5.3-16.3-16.1-16.3h-3.6c-10.9,0-16.4,5.7-16.4,16.4v63
			c0,10.9,5.5,16.6,16.4,16.6h3.6c10.9,0,16.4-5.7,16.4-16.6v-20H556.5z M575,17.8v94.4h27v-7.6h-19V17.8H575z M631.7,17.5
			l15.6,94.7h-7.7l-2.8-17.8h-19.8l-2.7,17.8h-7.7l15.6-94.7H631.7z M626.7,30.9l-8.7,56h17.4L626.7,30.9z M682.1,67.2
			c5.9,1.6,8.9,5.5,8.9,13.3v31.7h-8V80.8c0-6.7-3.2-9.8-10-9.8H664v41.3h-8V17.8h18.5c10.9,0,16.4,5.5,16.4,16.4v18.1
			C690.9,61.1,687.6,65.1,682.1,67.2z M682.9,33.9c0-5.8-2.8-8.5-8.7-8.5H664v38.2h9.2c6.5,0,9.7-3.1,9.7-9.7V33.9z M739.5,112.2
			l-20.9-48L740,17.8h-8.5l-20.8,46v-46h-8v94.4h8V65.7l20,46.5H739.5z"/>
		<g id="Group-Copy" transform="translate(0.000000, 7.000000)">
			<path id="Line" class="st2" d="M0.7,99.4h126.8"/>
			<polyline id="Line-Copy" class="st2" points="0.7,85 64.1,70.8 127.5,85 			"/>
			<polyline id="Line-Copy-2" class="st2" points="0.7,67.3 64.1,38.9 127.5,67.3 			"/>
			<polyline id="Line-Copy-3" class="st2" points="0.7,42.5 64.1,0 127.5,42.5 			"/>
		</g>
	</g>
</g>
</svg>
